<svg width="219" height="219" viewBox="0 0 219 219" fill="none" xmlns="http://www.w3.org/2000/svg">
<path d="M95.0352 77.4839L128.311 86.7886C135.683 88.8502 139.806 97.1633 137.926 103.889C135.864 111.262 128.211 115.57 120.839 113.508L87.5636 104.204L95.0352 77.4839Z" stroke="#DFFF18" stroke-opacity="0.5" stroke-width="8" stroke-miterlimit="10" stroke-linecap="round" stroke-linejoin="round"/>
<path d="M103.415 137.261L99.677 150.628M86.7806 132.61L83.0428 145.977M122.044 70.6393L118.31 83.9921M105.41 65.9879L101.676 79.3407M107.656 81.013L84.3814 74.5046M92.761 134.282L69.4859 127.774M87.5875 104.118L125.615 114.752C134.052 117.111 139.182 125.001 137.119 132.381C135.057 139.753 126.581 143.831 118.143 141.471L80.1159 130.838L87.5875 104.118Z" stroke="#DFFF18" stroke-opacity="0.5" stroke-width="8" stroke-miterlimit="10" stroke-linecap="round" stroke-linejoin="round"/>
</svg>
