<svg width="182" height="182" viewBox="0 0 182 182" fill="none" xmlns="http://www.w3.org/2000/svg">
<g clip-path="url(#clip0_385_165)">
<path d="M44.1776 61.4406L88.088 38.1781C107.823 27.7231 124.225 34.8299 133.373 52.098L139.907 64.4324C152.976 89.1011 147.323 114.211 120.188 128.586L72.8237 153.678L67.0116 129.588L103.521 110.246C121.283 100.837 123.92 85.539 115.817 70.2444L115.294 69.2577C110.59 60.3769 103.506 56.5475 92.6519 62.2978L50.2217 84.7761L44.1776 61.4406Z" stroke="#A244FF" stroke-opacity="0.5" stroke-width="8" stroke-miterlimit="10" stroke-linecap="round" stroke-linejoin="round"/>
<path d="M84.1831 84.4764L48.6601 103.295C44.2197 105.648 41.841 110.699 43.2066 115.662L45.1538 124.108L80.6768 105.289C85.1171 102.937 87.4959 97.8856 86.1302 92.9225L84.1831 84.4764Z" stroke="#A244FF" stroke-opacity="0.5" stroke-width="8" stroke-miterlimit="10" stroke-linecap="round" stroke-linejoin="round"/>
</g>
<defs>
<clipPath id="clip0_385_165">
<rect width="134" height="134" fill="white" transform="translate(0 62.7305) rotate(-27.9134)"/>
</clipPath>
</defs>
</svg>
