<svg width="156" height="216" viewBox="0 0 156 216" fill="none" xmlns="http://www.w3.org/2000/svg">
<path d="M57.7754 216H11.2754C7.47539 216 4.67539 215.2 2.87539 213.6C1.27539 211.8 0.475392 209 0.475392 205.2V10.8C0.475392 7 1.27539 4.3 2.87539 2.69999C4.67539 0.899992 7.47539 -8.58307e-06 11.2754 -8.58307e-06H145.075C148.875 -8.58307e-06 151.575 0.899992 153.175 2.69999C154.975 4.3 155.875 7 155.875 10.8V46.5C155.875 50.3 154.975 53.1 153.175 54.9C151.575 56.5 148.875 57.3 145.075 57.3H68.5754V88.5H120.775C124.575 88.5 127.275 89.4 128.875 91.2C130.675 92.8 131.575 95.5 131.575 99.3V135.3C131.575 139.1 130.675 141.9 128.875 143.7C127.275 145.3 124.575 146.1 120.775 146.1H68.5754V205.2C68.5754 209 67.6754 211.8 65.8754 213.6C64.2754 215.2 61.5754 216 57.7754 216ZM33.1754 189H36.1754V118.8H104.575V115.8H36.1754V30H128.875V27H33.1754V189Z" fill="#C06CFF"/>
</svg>
