<svg width="201" height="255" viewBox="0 0 201 255" fill="none" xmlns="http://www.w3.org/2000/svg">
<path d="M61.134 254.7H14.634C9.83399 254.7 6.33398 253.6 4.13398 251.4C1.93398 249.2 0.833985 245.7 0.833985 240.9V46.5C0.833985 43.9 1.13398 41.7 1.73398 39.9C2.53398 38.1 3.63398 36.6 5.03399 35.4L43.734 2.7C44.734 1.89999 46.034 1.29999 47.634 0.899983C49.434 0.29999 51.334 -5.72205e-06 53.334 -5.72205e-06H187.134C191.934 -5.72205e-06 195.434 1.09999 197.634 3.29999C199.834 5.49999 200.934 9 200.934 13.8V49.5C200.934 52.1 200.534 54.3 199.734 56.1C199.134 57.9 198.134 59.4 196.734 60.6L163.134 88.5C167.734 88.5 171.134 89.6 173.334 91.8C175.534 94 176.634 97.5 176.634 102.3V138.3C176.634 140.9 176.234 143.1 175.434 144.9C174.834 146.7 173.834 148.2 172.434 149.4L133.434 181.8C132.634 182.6 131.334 183.3 129.534 183.9C127.934 184.5 126.134 184.8 124.134 184.8H113.634V208.2C113.634 210.8 113.234 213 112.434 214.8C111.834 216.6 110.834 218.1 109.434 219.3L70.434 251.7C69.634 252.5 68.334 253.2 66.534 253.8C64.934 254.4 63.134 254.7 61.134 254.7ZM99.834 219C103.634 219 106.334 218.2 107.934 216.6C109.734 214.8 110.634 212 110.634 208.2V149.1H162.834C166.634 149.1 169.334 148.3 170.934 146.7C172.734 144.9 173.634 142.1 173.634 138.3V102.3C173.634 98.5 172.734 95.8 170.934 94.2C169.334 92.4 166.634 91.5 162.834 91.5H110.634V60.3H187.134C190.934 60.3 193.634 59.5 195.234 57.9C197.034 56.1 197.934 53.3 197.934 49.5V13.8C197.934 10 197.034 7.3 195.234 5.69999C193.634 3.89999 190.934 2.99999 187.134 2.99999H53.334C49.534 2.99999 46.734 3.89999 44.934 5.69999C43.334 7.3 42.534 10 42.534 13.8V208.2C42.534 212 43.334 214.8 44.934 216.6C46.734 218.2 49.534 219 53.334 219H99.834ZM75.234 192V30H170.934V33H78.234V118.8H146.634V121.8H78.234V192H75.234Z" fill="#C06CFF"/>
<path d="M1.73399 39.9L0.820175 39.4939L0.800568 39.538L0.785301 39.5838L1.73399 39.9ZM5.03399 35.4L4.38856 34.6361L4.38319 34.6407L5.03399 35.4ZM43.734 2.7L43.1093 1.91913L43.0988 1.92751L43.0886 1.93616L43.734 2.7ZM47.634 0.899986L47.8765 1.87012L47.9138 1.86081L47.9502 1.84867L47.634 0.899986ZM197.634 3.29999L198.341 2.59288L197.634 3.29999ZM199.734 56.1L198.82 55.6938L198.801 55.738L198.785 55.7838L199.734 56.1ZM196.734 60.6L197.373 61.3694L197.379 61.3643L197.385 61.3593L196.734 60.6ZM163.134 88.5L162.495 87.7306L160.364 89.5H163.134V88.5ZM173.334 91.8L172.627 92.5071L173.334 91.8ZM175.434 144.9L174.52 144.494L174.501 144.538L174.485 144.584L175.434 144.9ZM172.434 149.4L173.073 150.169L173.079 150.164L173.085 150.159L172.434 149.4ZM133.434 181.8L132.795 181.031L132.759 181.06L132.727 181.093L133.434 181.8ZM129.534 183.9L129.218 182.951L129.2 182.957L129.183 182.964L129.534 183.9ZM113.634 184.8V183.8H112.634V184.8H113.634ZM112.434 214.8L111.52 214.394L111.501 214.438L111.485 214.484L112.434 214.8ZM109.434 219.3L110.073 220.069L110.079 220.064L110.085 220.059L109.434 219.3ZM70.434 251.7L69.795 250.931L69.7595 250.96L69.7269 250.993L70.434 251.7ZM66.534 253.8L66.2178 252.851L66.2002 252.857L66.1829 252.864L66.534 253.8ZM107.934 216.6L107.227 215.893L107.934 216.6ZM110.634 149.1V148.1H109.634V149.1H110.634ZM170.934 146.7L171.641 147.407L170.934 146.7ZM170.934 94.2L170.187 94.8644L170.226 94.9083L170.27 94.9474L170.934 94.2ZM110.634 91.5H109.634V92.5H110.634V91.5ZM110.634 60.3V59.3H109.634V60.3H110.634ZM195.234 5.69999L194.487 6.36436L194.526 6.40832L194.57 6.4474L195.234 5.69999ZM44.934 5.69999L44.2269 4.99289L44.934 5.69999ZM44.934 216.6L44.1866 217.264L44.2257 217.308L44.2696 217.347L44.934 216.6ZM75.234 192H74.234V193H75.234V192ZM75.234 30V29H74.234V30H75.234ZM170.934 30H171.934V29H170.934V30ZM170.934 33V34H171.934V33H170.934ZM78.234 33V32H77.234V33H78.234ZM78.234 118.8H77.234V119.8H78.234V118.8ZM146.634 118.8H147.634V117.8H146.634V118.8ZM146.634 121.8V122.8H147.634V121.8H146.634ZM78.234 121.8V120.8H77.234V121.8H78.234ZM78.234 192V193H79.234V192H78.234ZM61.134 253.7H14.634V255.7H61.134V253.7ZM14.634 253.7C9.95856 253.7 6.77325 252.625 4.84109 250.693L3.42688 252.107C5.89472 254.575 9.70942 255.7 14.634 255.7V253.7ZM4.84109 250.693C2.90894 248.761 1.83398 245.575 1.83398 240.9H-0.166016C-0.166016 245.825 0.959038 249.639 3.42688 252.107L4.84109 250.693ZM1.83398 240.9V46.5H-0.166016V240.9H1.83398ZM1.83398 46.5C1.83398 43.9706 2.12664 41.8843 2.68267 40.2162L0.785301 39.5838C0.141335 41.5157 -0.166016 43.8294 -0.166016 46.5H1.83398ZM2.6478 40.3061C3.39165 38.6325 4.4052 37.256 5.68478 36.1592L4.38319 34.6407C2.86277 35.944 1.67632 37.5675 0.820175 39.4939L2.6478 40.3061ZM5.6794 36.1638L44.3794 3.46383L43.0886 1.93616L4.38857 34.6362L5.6794 36.1638ZM44.3587 3.48087C45.219 2.79263 46.3774 2.24491 47.8765 1.87012L47.3914 -0.0701599C45.6906 0.355072 44.249 1.00736 43.1093 1.91913L44.3587 3.48087ZM47.9502 1.84867C49.6428 1.28446 51.4356 0.999992 53.334 0.999992V-1.00001C51.2324 -1.00001 49.2251 -0.684486 47.3178 -0.0486984L47.9502 1.84867ZM53.334 0.999992H187.134V-1.00001H53.334V0.999992ZM187.134 0.999992C191.809 0.999992 194.995 2.07494 196.927 4.0071L198.341 2.59288C195.873 0.125046 192.059 -1.00001 187.134 -1.00001V0.999992ZM196.927 4.0071C198.859 5.93926 199.934 9.12457 199.934 13.8H201.934C201.934 8.87543 200.809 5.06073 198.341 2.59288L196.927 4.0071ZM199.934 13.8V49.5H201.934V13.8H199.934ZM199.934 49.5C199.934 52.0027 199.548 54.0556 198.82 55.6938L200.648 56.5061C201.52 54.5443 201.934 52.1973 201.934 49.5H199.934ZM198.785 55.7838C198.241 57.4171 197.341 58.7622 196.083 59.8407L197.385 61.3593C198.927 60.0378 200.027 58.3829 200.683 56.4162L198.785 55.7838ZM196.095 59.8307L162.495 87.7306L163.773 89.2693L197.373 61.3694L196.095 59.8307ZM163.134 89.5C167.595 89.5 170.688 90.5681 172.627 92.5071L174.041 91.0929C171.58 88.6318 167.873 87.5 163.134 87.5V89.5ZM172.627 92.5071C174.559 94.4393 175.634 97.6246 175.634 102.3H177.634C177.634 97.3754 176.509 93.5607 174.041 91.0929L172.627 92.5071ZM175.634 102.3V138.3H177.634V102.3H175.634ZM175.634 138.3C175.634 140.803 175.248 142.856 174.52 144.494L176.348 145.306C177.22 143.344 177.634 140.997 177.634 138.3H175.634ZM174.485 144.584C173.941 146.217 173.041 147.562 171.783 148.641L173.085 150.159C174.627 148.838 175.727 147.183 176.383 145.216L174.485 144.584ZM171.795 148.631L132.795 181.031L134.073 182.569L173.073 150.169L171.795 148.631ZM132.727 181.093C132.087 181.733 130.958 182.371 129.218 182.951L129.85 184.849C131.71 184.229 133.181 183.467 134.141 182.507L132.727 181.093ZM129.183 182.964C127.712 183.515 126.034 183.8 124.134 183.8V185.8C126.234 185.8 128.155 185.485 129.885 184.836L129.183 182.964ZM124.134 183.8H113.634V185.8H124.134V183.8ZM112.634 184.8V208.2H114.634V184.8H112.634ZM112.634 208.2C112.634 210.703 112.248 212.756 111.52 214.394L113.348 215.206C114.22 213.244 114.634 210.897 114.634 208.2H112.634ZM111.485 214.484C110.941 216.117 110.041 217.462 108.783 218.541L110.085 220.059C111.627 218.738 112.727 217.083 113.383 215.116L111.485 214.484ZM108.795 218.531L69.795 250.931L71.073 252.469L110.073 220.069L108.795 218.531ZM69.7269 250.993C69.0871 251.633 67.9577 252.271 66.2178 252.851L66.8502 254.749C68.7103 254.129 70.1809 253.367 71.1411 252.407L69.7269 250.993ZM66.1829 252.864C64.7125 253.415 63.0341 253.7 61.134 253.7V255.7C63.2339 255.7 65.1555 255.385 66.8851 254.736L66.1829 252.864ZM99.834 220C103.729 220 106.76 219.188 108.641 217.307L107.227 215.893C105.908 217.212 103.539 218 99.834 218V220ZM108.641 217.307C110.704 215.245 111.634 212.136 111.634 208.2H109.634C109.634 211.864 108.764 214.355 107.227 215.893L108.641 217.307ZM111.634 208.2V149.1H109.634V208.2H111.634ZM110.634 150.1H162.834V148.1H110.634V150.1ZM162.834 150.1C166.729 150.1 169.76 149.288 171.641 147.407L170.227 145.993C168.908 147.312 166.539 148.1 162.834 148.1V150.1ZM171.641 147.407C173.704 145.345 174.634 142.236 174.634 138.3H172.634C172.634 141.964 171.764 144.455 170.227 145.993L171.641 147.407ZM174.634 138.3V102.3H172.634V138.3H174.634ZM174.634 102.3C174.634 98.3771 173.709 95.3287 171.598 93.4526L170.27 94.9474C171.759 96.2713 172.634 98.6229 172.634 102.3H174.634ZM171.681 93.5356C169.805 91.425 166.757 90.5 162.834 90.5V92.5C166.511 92.5 168.863 93.375 170.187 94.8644L171.681 93.5356ZM162.834 90.5H110.634V92.5H162.834V90.5ZM111.634 91.5V60.3H109.634V91.5H111.634ZM110.634 61.3H187.134V59.3H110.634V61.3ZM187.134 61.3C191.029 61.3 194.06 60.4877 195.941 58.6071L194.527 57.1929C193.208 58.5122 190.839 59.3 187.134 59.3V61.3ZM195.941 58.6071C198.004 56.5445 198.934 53.4358 198.934 49.5H196.934C196.934 53.1642 196.064 55.6555 194.527 57.1929L195.941 58.6071ZM198.934 49.5V13.8H196.934V49.5H198.934ZM198.934 13.8C198.934 9.87711 198.009 6.82874 195.898 4.95258L194.57 6.4474C196.059 7.77126 196.934 10.1229 196.934 13.8H198.934ZM195.981 5.03563C194.105 2.92496 191.057 1.99999 187.134 1.99999V3.99999C190.811 3.99999 193.163 4.87502 194.487 6.36436L195.981 5.03563ZM187.134 1.99999H53.334V3.99999H187.134V1.99999ZM53.334 1.99999C49.3982 1.99999 46.2895 2.93028 44.2269 4.99289L45.6411 6.4071C47.1785 4.8697 49.6698 3.99999 53.334 3.99999V1.99999ZM44.2269 4.99289C42.3462 6.87354 41.534 9.90459 41.534 13.8H43.534C43.534 10.0954 44.3217 7.72645 45.6411 6.4071L44.2269 4.99289ZM41.534 13.8V208.2H43.534V13.8H41.534ZM41.534 208.2C41.534 212.11 42.3524 215.201 44.1866 217.264L45.6814 215.936C44.3156 214.399 43.534 211.89 43.534 208.2H41.534ZM44.2696 217.347C46.3331 219.182 49.4238 220 53.334 220V218C49.6442 218 47.1349 217.218 45.5983 215.853L44.2696 217.347ZM53.334 220H99.834V218H53.334V220ZM76.234 192V30H74.234V192H76.234ZM75.234 31H170.934V29H75.234V31ZM169.934 30V33H171.934V30H169.934ZM170.934 32H78.234V34H170.934V32ZM77.234 33V118.8H79.234V33H77.234ZM78.234 119.8H146.634V117.8H78.234V119.8ZM145.634 118.8V121.8H147.634V118.8H145.634ZM146.634 120.8H78.234V122.8H146.634V120.8ZM77.234 121.8V192H79.234V121.8H77.234ZM78.234 191H75.234V193H78.234V191Z" fill="#C06CFF"/>
</svg>
