<svg width="586" height="586" viewBox="0 0 586 586" fill="none" xmlns="http://www.w3.org/2000/svg">
<g clip-path="url(#clip0_405_170)">
<path d="M343.393 270.557C358.021 276.562 369.021 286.518 380.347 301.718L386.178 309.924L391.539 317.929C398.535 328.434 402.032 333.088 405.681 336.449C415.201 345.219 428.707 352.755 446.309 358.867C455.97 362.222 461.029 372.752 457.605 382.388C454.181 392.025 443.575 397.118 433.913 393.762C411.818 386.092 393.939 376.114 380.39 363.634C375.136 358.795 371.143 353.91 365.323 345.493L354.875 329.98L353.047 327.361C344.261 314.925 337.132 308.032 329.078 304.727C314.4 298.701 290.811 312.222 288.822 324.321C285.895 342.11 293.964 367.427 311.803 388.976C326.028 406.161 342.027 422.223 359.808 437.168C367.619 443.733 368.57 455.387 361.932 463.196C355.295 471.008 343.582 472.018 335.771 465.454C316.312 449.1 298.753 431.47 283.105 412.567C258.837 383.252 247.433 347.471 252.191 318.547C258.024 283.09 306.391 255.368 343.393 270.557ZM316.171 325.173C325.469 320.826 336.53 324.838 340.878 334.133C352.68 359.37 371.596 380.558 395.238 395.131L400.376 398.15L408.357 402.621C417.309 407.636 420.503 418.961 415.487 427.917C410.857 436.181 400.852 439.537 392.296 436.06L390.191 435.047L382.212 430.577C349.383 412.188 323.151 383.964 307.21 349.88C302.862 340.582 306.875 329.522 316.171 325.173ZM213.643 269.753C239.336 225.826 289.099 206.323 331.377 213.453C352.318 216.984 370.127 224.014 384.587 234.697C392.841 240.795 394.589 252.432 388.489 260.686C382.39 268.94 370.754 270.688 362.5 264.59C353.026 257.591 340.663 252.709 325.198 250.102C297.317 245.4 263.101 258.81 245.726 288.519C227.52 319.644 230.781 358.514 249.591 393.131C260.24 412.731 275.254 430.778 294.749 447.293C302.58 453.928 303.55 465.655 296.916 473.485C290.281 481.315 278.555 482.285 270.724 475.652C247.82 456.248 229.85 434.647 216.934 410.877C192.437 365.793 188.051 313.508 213.643 269.753ZM432.002 280.623C436.593 289.988 442.206 296.684 448.845 301.072C455.092 305.199 459.28 306.626 461.003 306.434C471.204 305.3 480.392 312.652 481.524 322.853C482.658 333.054 475.305 342.24 465.106 343.374C453.301 344.684 441.188 340.56 428.356 332.081C415.92 323.862 406.01 312.041 398.629 296.977C394.112 287.761 397.922 276.629 407.139 272.112C416.355 267.598 427.488 271.407 432.002 280.623ZM222.322 200.652C229.876 207.6 230.367 219.356 223.419 226.91C198.673 253.814 184.598 282.98 180.777 314.797C175.982 354.732 187.05 394.452 204.708 424.267C209.938 433.097 207.02 444.497 198.189 449.726C189.358 454.956 177.96 452.038 172.73 443.208C151.231 406.909 137.99 359.386 143.876 310.366C148.656 270.563 166.191 234.228 196.065 201.749C203.013 194.195 214.769 193.704 222.322 200.652ZM256.869 165.017C289.535 151.828 327.915 152.912 371.519 167.504C415.618 182.258 451.368 212.636 478.412 257.873C483.678 266.683 480.808 278.093 471.999 283.36C463.189 288.626 451.778 285.754 446.512 276.945C423.855 239.045 395.045 214.567 359.726 202.749C323.916 190.766 294.43 189.933 270.783 199.481C261.265 203.324 250.436 198.723 246.594 189.206C242.751 179.69 247.351 168.86 256.869 165.017ZM133.522 222.434C142.812 226.796 146.807 237.863 142.445 247.153C139.691 253.02 137.033 259.778 134.489 267.418C132.151 274.44 130.333 283.117 129.097 293.408C127.873 303.598 118.62 310.866 108.43 309.642C98.2399 308.418 90.9715 299.165 92.1956 288.975C93.7129 276.344 96.0359 265.258 99.2262 255.677C102.211 246.713 105.397 238.61 108.802 231.358C113.164 222.067 124.231 218.072 133.522 222.434ZM228.258 118.552C267.33 103.961 306.439 97.1386 341.511 106.219C351.448 108.791 357.417 118.931 354.844 128.867C352.272 138.803 342.132 144.772 332.197 142.199C304.858 135.122 273.476 141.339 241.261 153.37C208.918 165.449 185.534 182.111 170.594 203.225C164.666 211.603 153.069 213.589 144.691 207.661C136.313 201.733 134.326 190.136 140.254 181.757C159.81 154.12 189.315 133.096 228.258 118.552Z" fill="#212121" fill-opacity="0.14"/>
</g>
<defs>
<clipPath id="clip0_405_170">
<rect width="445.999" height="445.999" fill="white" transform="translate(0 175.414) rotate(-23.1604)"/>
</clipPath>
</defs>
</svg>
