<svg width="31" height="31" viewBox="0 0 31 31" fill="none" xmlns="http://www.w3.org/2000/svg">
<path d="M18.4654 21.0471C17.9613 21.5518 17.9619 22.3696 18.4667 22.8737C18.9715 23.3777 19.7892 23.3772 20.2934 22.8724L26.7473 16.4097C27.2511 15.9052 27.2508 15.088 26.7468 14.5837L20.2929 8.12842C19.7885 7.62393 18.9706 7.62385 18.4662 8.12822C17.9617 8.63259 17.9615 9.45044 18.4659 9.95491L22.7191 14.2083H14.2083C8.60907 14.2083 4.04997 18.6617 3.87992 24.2198L3.875 24.5417C3.875 25.2551 4.4533 25.8333 5.16667 25.8333C5.88003 25.8333 6.45833 25.2551 6.45833 24.5417C6.45833 20.3587 9.77219 16.9498 13.9178 16.797L14.2083 16.7917H22.7153L18.4654 21.0471Z" fill="white"/>
</svg>
