<svg width="325" height="325" viewBox="0 0 325 325" fill="none" xmlns="http://www.w3.org/2000/svg">
<path d="M189.584 190.26V189.586H57.5902C40.7711 189.586 27.1367 203.22 27.1367 220.04V232.497C27.1367 240.244 29.5526 247.798 34.0478 254.107C54.9313 283.416 89.0965 297.934 135.423 297.934C145.098 297.934 154.244 297.302 162.851 296.032C162.62 294.436 162.5 292.805 162.5 291.146V223.438C162.5 207.059 174.131 193.397 189.584 190.26ZM135.423 27.1494C172.816 27.1494 203.131 57.4635 203.131 94.8577C203.131 132.252 172.816 162.566 135.423 162.566C98.0277 162.566 67.7136 132.252 67.7136 94.8577C67.7136 57.4635 98.0277 27.1494 135.423 27.1494ZM203.125 203.125V189.583C203.125 170.886 218.283 155.729 236.98 155.729C255.677 155.729 270.834 170.886 270.834 189.583V203.125H277.605C288.823 203.125 297.917 212.22 297.917 223.438V291.146C297.917 302.364 288.823 311.458 277.605 311.458H196.355C185.137 311.458 176.042 302.364 176.042 291.146V223.438C176.042 212.22 185.137 203.125 196.355 203.125H203.125ZM223.438 189.583V203.125H250.521V189.583C250.521 182.104 244.459 176.042 236.98 176.042C229.501 176.042 223.438 182.104 223.438 189.583ZM250.521 257.292C250.521 249.813 244.459 243.75 236.98 243.75C229.501 243.75 223.438 249.813 223.438 257.292C223.438 264.771 229.501 270.833 236.98 270.833C244.459 270.833 250.521 264.771 250.521 257.292Z" fill="#212121" fill-opacity="0.16"/>
</svg>
